<?xml version="1.0" encoding="UTF-8"?>
<svg xmlns="http://www.w3.org/2000/svg" xmlns:xlink="http://www.w3.org/1999/xlink" width="298pt" height="329pt" viewBox="0 0 298 329" version="1.1">
<defs>
<radialGradient id="radial0" gradientUnits="userSpaceOnUse" cx="0" cy="0" fx="0" fy="0" r="140" gradientTransform="matrix(1,0,0,1,149,164.5)">
<stop offset="0" style="stop-color:rgb(72%,80%,56%);stop-opacity:1;"/>
<stop offset="1" style="stop-color:rgb(44%,60%,12%);stop-opacity:1;"/>
</radialGradient>
<clipPath id="clip1">
  <path d="M 148 219 L 198 219 L 198 300 L 148 300 Z M 148 219 "/>
</clipPath>
<clipPath id="clip2">
  <path d="M 149 324.5 C 138.609375 324.5 15.632812 253.5 10.4375 244.5 C 5.238281 235.5 5.238281 93.5 10.4375 84.5 C 15.632812 75.5 138.609375 4.5 149 4.5 C 159.390625 4.5 282.367188 75.5 287.5625 84.5 C 292.761719 93.5 292.761719 235.5 287.5625 244.5 C 282.367188 253.5 159.390625 324.5 149 324.5 "/>
</clipPath>
<clipPath id="clip3">
  <path d="M 134 205 L 212 205 L 212 314 L 134 314 Z M 134 205 "/>
</clipPath>
<clipPath id="clip4">
  <path d="M 149 324.5 C 138.609375 324.5 15.632812 253.5 10.4375 244.5 C 5.238281 235.5 5.238281 93.5 10.4375 84.5 C 15.632812 75.5 138.609375 4.5 149 4.5 C 159.390625 4.5 282.367188 75.5 287.5625 84.5 C 292.761719 93.5 292.761719 235.5 287.5625 244.5 C 282.367188 253.5 159.390625 324.5 149 324.5 "/>
</clipPath>
<clipPath id="clip5">
  <path d="M 25 140 L 60 140 L 60 230 L 25 230 Z M 25 140 "/>
</clipPath>
<clipPath id="clip6">
  <path d="M 149 324.5 C 138.609375 324.5 15.632812 253.5 10.4375 244.5 C 5.238281 235.5 5.238281 93.5 10.4375 84.5 C 15.632812 75.5 138.609375 4.5 149 4.5 C 159.390625 4.5 282.367188 75.5 287.5625 84.5 C 292.761719 93.5 292.761719 235.5 287.5625 244.5 C 282.367188 253.5 159.390625 324.5 149 324.5 "/>
</clipPath>
<clipPath id="clip7">
  <path d="M 64 162 L 82 162 L 82 230 L 64 230 Z M 64 162 "/>
</clipPath>
<clipPath id="clip8">
  <path d="M 149 324.5 C 138.609375 324.5 15.632812 253.5 10.4375 244.5 C 5.238281 235.5 5.238281 93.5 10.4375 84.5 C 15.632812 75.5 138.609375 4.5 149 4.5 C 159.390625 4.5 282.367188 75.5 287.5625 84.5 C 292.761719 93.5 292.761719 235.5 287.5625 244.5 C 282.367188 253.5 159.390625 324.5 149 324.5 "/>
</clipPath>
<clipPath id="clip9">
  <path d="M 85 138 L 168 138 L 168 237 L 85 237 Z M 85 138 "/>
</clipPath>
<clipPath id="clip10">
  <path d="M 149 324.5 C 138.609375 324.5 15.632812 253.5 10.4375 244.5 C 5.238281 235.5 5.238281 93.5 10.4375 84.5 C 15.632812 75.5 138.609375 4.5 149 4.5 C 159.390625 4.5 282.367188 75.5 287.5625 84.5 C 292.761719 93.5 292.761719 235.5 287.5625 244.5 C 282.367188 253.5 159.390625 324.5 149 324.5 "/>
</clipPath>
<clipPath id="clip11">
  <path d="M 172 145 L 192 145 L 192 220 L 172 220 Z M 172 145 "/>
</clipPath>
<clipPath id="clip12">
  <path d="M 149 324.5 C 138.609375 324.5 15.632812 253.5 10.4375 244.5 C 5.238281 235.5 5.238281 93.5 10.4375 84.5 C 15.632812 75.5 138.609375 4.5 149 4.5 C 159.390625 4.5 282.367188 75.5 287.5625 84.5 C 292.761719 93.5 292.761719 235.5 287.5625 244.5 C 282.367188 253.5 159.390625 324.5 149 324.5 "/>
</clipPath>
<clipPath id="clip13">
  <path d="M 193 199 L 243 199 L 243 246 L 193 246 Z M 193 199 "/>
</clipPath>
<clipPath id="clip14">
  <path d="M 149 324.5 C 138.609375 324.5 15.632812 253.5 10.4375 244.5 C 5.238281 235.5 5.238281 93.5 10.4375 84.5 C 15.632812 75.5 138.609375 4.5 149 4.5 C 159.390625 4.5 282.367188 75.5 287.5625 84.5 C 292.761719 93.5 292.761719 235.5 287.5625 244.5 C 282.367188 253.5 159.390625 324.5 149 324.5 "/>
</clipPath>
<clipPath id="clip15">
  <path d="M 248 167 L 278 167 L 278 230 L 248 230 Z M 248 167 "/>
</clipPath>
<clipPath id="clip16">
  <path d="M 149 324.5 C 138.609375 324.5 15.632812 253.5 10.4375 244.5 C 5.238281 235.5 5.238281 93.5 10.4375 84.5 C 15.632812 75.5 138.609375 4.5 149 4.5 C 159.390625 4.5 282.367188 75.5 287.5625 84.5 C 292.761719 93.5 292.761719 235.5 287.5625 244.5 C 282.367188 253.5 159.390625 324.5 149 324.5 "/>
</clipPath>
<clipPath id="clip17">
  <path d="M 148 225 L 206 225 L 206 300 L 148 300 Z M 148 225 "/>
</clipPath>
<clipPath id="clip18">
  <path d="M 149 324.5 C 138.609375 324.5 15.632812 253.5 10.4375 244.5 C 5.238281 235.5 5.238281 93.5 10.4375 84.5 C 15.632812 75.5 138.609375 4.5 149 4.5 C 159.390625 4.5 282.367188 75.5 287.5625 84.5 C 292.761719 93.5 292.761719 235.5 287.5625 244.5 C 282.367188 253.5 159.390625 324.5 149 324.5 "/>
</clipPath>
<clipPath id="clip19">
  <path d="M 134 211 L 221 211 L 221 314 L 134 314 Z M 134 211 "/>
</clipPath>
<clipPath id="clip20">
  <path d="M 149 324.5 C 138.609375 324.5 15.632812 253.5 10.4375 244.5 C 5.238281 235.5 5.238281 93.5 10.4375 84.5 C 15.632812 75.5 138.609375 4.5 149 4.5 C 159.390625 4.5 282.367188 75.5 287.5625 84.5 C 292.761719 93.5 292.761719 235.5 287.5625 244.5 C 282.367188 253.5 159.390625 324.5 149 324.5 "/>
</clipPath>
<clipPath id="clip21">
  <path d="M 78 139 L 88 139 L 88 150 L 78 150 Z M 78 139 "/>
</clipPath>
<clipPath id="clip22">
  <path d="M 149 324.5 C 138.609375 324.5 15.632812 253.5 10.4375 244.5 C 5.238281 235.5 5.238281 93.5 10.4375 84.5 C 15.632812 75.5 138.609375 4.5 149 4.5 C 159.390625 4.5 282.367188 75.5 287.5625 84.5 C 292.761719 93.5 292.761719 235.5 287.5625 244.5 C 282.367188 253.5 159.390625 324.5 149 324.5 "/>
</clipPath>
<clipPath id="clip23">
  <path d="M 82 143 L 84 143 L 84 266 L 82 266 Z M 82 143 "/>
</clipPath>
<clipPath id="clip24">
  <path d="M 149 324.5 C 138.609375 324.5 15.632812 253.5 10.4375 244.5 C 5.238281 235.5 5.238281 93.5 10.4375 84.5 C 15.632812 75.5 138.609375 4.5 149 4.5 C 159.390625 4.5 282.367188 75.5 287.5625 84.5 C 292.761719 93.5 292.761719 235.5 287.5625 244.5 C 282.367188 253.5 159.390625 324.5 149 324.5 "/>
</clipPath>
<clipPath id="clip25">
  <path d="M 78 259 L 88 259 L 88 270 L 78 270 Z M 78 259 "/>
</clipPath>
<clipPath id="clip26">
  <path d="M 149 324.5 C 138.609375 324.5 15.632812 253.5 10.4375 244.5 C 5.238281 235.5 5.238281 93.5 10.4375 84.5 C 15.632812 75.5 138.609375 4.5 149 4.5 C 159.390625 4.5 282.367188 75.5 287.5625 84.5 C 292.761719 93.5 292.761719 235.5 287.5625 244.5 C 282.367188 253.5 159.390625 324.5 149 324.5 "/>
</clipPath>
</defs>
<g id="surface498">
<path style="fill-rule:nonzero;fill:url(#radial0);stroke-width:7;stroke-linecap:butt;stroke-linejoin:miter;stroke:rgb(66.666667%,80%,40%);stroke-opacity:1;stroke-miterlimit:10;" d="M 149 324.5 C 138.609375 324.5 15.632812 253.5 10.4375 244.5 C 5.238281 235.5 5.238281 93.5 10.4375 84.5 C 15.632812 75.5 138.609375 4.5 149 4.5 C 159.390625 4.5 282.367188 75.5 287.5625 84.5 C 292.761719 93.5 292.761719 235.5 287.5625 244.5 C 282.367188 253.5 159.390625 324.5 149 324.5 "/>
<path style=" stroke:none;fill-rule:nonzero;fill:rgb(100%,100%,100%);fill-opacity:1;" d="M 45.425781 120.5 L 51.179688 120.5 L 51.179688 94.964844 L 56.933594 94.964844 L 56.933594 89.460938 L 39.671875 89.460938 L 39.671875 94.964844 L 45.425781 94.964844 Z M 59.289062 120.5 L 64.875 120.5 L 64.875 97.230469 L 59.289062 97.230469 Z M 59.289062 94.710938 L 64.875 94.710938 L 64.875 89.460938 L 59.289062 89.460938 Z M 92.847656 89.460938 L 87.261719 89.460938 L 87.261719 99.289062 C 85.625 97.484375 82.9375 96.390625 80.039062 96.390625 C 73.484375 96.390625 68.363281 101.851562 68.363281 108.824219 C 68.363281 115.753906 73.402344 121.046875 80.039062 121.046875 C 83.1875 121.046875 85.457031 119.996094 87.722656 117.476562 L 87.722656 120.5 L 92.847656 120.5 Z M 80.792969 101.515625 C 84.699219 101.515625 87.679688 104.625 87.679688 108.738281 C 87.679688 112.773438 84.699219 115.921875 80.917969 115.921875 C 77.011719 115.921875 73.988281 112.730469 73.988281 108.570312 C 73.988281 104.582031 76.972656 101.515625 80.792969 101.515625 Z M 97.089844 120.5 L 102.675781 120.5 L 102.675781 97.230469 L 97.089844 97.230469 Z M 97.089844 94.710938 L 102.675781 94.710938 L 102.675781 89.460938 L 97.089844 89.460938 Z M 130.222656 111.34375 C 130.390625 110.503906 130.433594 110 130.433594 109.160156 C 130.433594 101.976562 125.351562 96.6875 118.421875 96.6875 C 111.578125 96.6875 106.160156 102.105469 106.160156 108.949219 C 106.160156 115.753906 111.660156 121.046875 118.757812 121.046875 C 122.582031 121.046875 125.5625 119.660156 128 116.847656 C 128.878906 115.753906 129.46875 114.789062 129.847656 113.613281 L 123.757812 113.613281 C 122.328125 115.292969 120.941406 115.921875 118.632812 115.921875 C 115.3125 115.921875 112.878906 114.15625 112.207031 111.34375 Z M 112.039062 106.429688 C 112.921875 103.40625 115.1875 101.808594 118.507812 101.808594 C 121.949219 101.808594 124.21875 103.449219 124.933594 106.429688 Z M 134.050781 120.5 L 139.636719 120.5 L 139.636719 107.5625 C 139.507812 104.121094 141.273438 102.1875 144.632812 102.0625 L 144.632812 96.6875 L 144.214844 96.6875 C 141.820312 96.6875 140.644531 97.359375 139.171875 99.5 L 139.171875 97.230469 L 134.050781 97.230469 Z M 151.265625 120.5 L 157.019531 120.5 L 157.019531 94.964844 L 162.773438 94.964844 L 162.773438 89.460938 L 145.511719 89.460938 L 145.511719 94.964844 L 151.265625 94.964844 Z M 188.183594 111.34375 C 188.351562 110.503906 188.394531 110 188.394531 109.160156 C 188.394531 101.976562 183.3125 96.6875 176.382812 96.6875 C 169.539062 96.6875 164.121094 102.105469 164.121094 108.949219 C 164.121094 115.753906 169.621094 121.046875 176.71875 121.046875 C 180.542969 121.046875 183.523438 119.660156 185.960938 116.847656 C 186.839844 115.753906 187.429688 114.789062 187.808594 113.613281 L 181.71875 113.613281 C 180.289062 115.292969 178.902344 115.921875 176.59375 115.921875 C 173.273438 115.921875 170.839844 114.15625 170.167969 111.34375 Z M 170 106.429688 C 170.882812 103.40625 173.148438 101.808594 176.46875 101.808594 C 179.910156 101.808594 182.179688 103.449219 182.894531 106.429688 Z M 189.78125 120.5 L 196.5 120.5 L 201.371094 112.519531 L 206.246094 120.5 L 212.964844 120.5 L 204.691406 108.488281 L 211.789062 97.230469 L 205.488281 97.230469 L 201.371094 104.246094 L 197.171875 97.230469 L 190.871094 97.230469 L 198.011719 108.488281 Z M 216.371094 120.5 L 221.957031 120.5 L 221.957031 102.3125 L 225.316406 102.3125 L 225.316406 97.230469 L 221.957031 97.230469 L 221.957031 89.460938 L 216.371094 89.460938 L 216.371094 97.230469 L 213.640625 97.230469 L 213.640625 102.3125 L 216.371094 102.3125 Z M 228.882812 120.5 L 234.46875 120.5 L 234.46875 115.125 L 228.882812 115.125 Z M 240.644531 97.230469 L 240.644531 118.820312 C 240.6875 121.96875 240.394531 122.515625 238.335938 122.851562 L 238.335938 128.269531 C 243.460938 128.1875 246.398438 124.742188 246.230469 118.945312 L 246.230469 97.230469 Z M 240.644531 94.710938 L 246.230469 94.710938 L 246.230469 89.460938 L 240.644531 89.460938 Z M 250.808594 120.5 L 256.394531 120.5 L 256.394531 89.460938 L 250.808594 89.460938 Z M 258.621094 120.5 "/>
<path style="fill-rule:nonzero;fill:rgb(78.90625%,23.4375%,19.53125%);fill-opacity:1;stroke-width:1;stroke-linecap:butt;stroke-linejoin:miter;stroke:rgb(66.796875%,20.3125%,16.796875%);stroke-opacity:1;stroke-miterlimit:10;" d="M 66.582031 92.085938 C 66.582031 94.570312 64.566406 96.585938 62.082031 96.585938 C 59.597656 96.585938 57.582031 94.570312 57.582031 92.085938 C 57.582031 89.601562 59.597656 87.585938 62.082031 87.585938 C 64.566406 87.585938 66.582031 89.601562 66.582031 92.085938 Z M 66.582031 92.085938 "/>
<path style="fill-rule:nonzero;fill:rgb(22.265625%,58.984375%,27.34375%);fill-opacity:1;stroke-width:1;stroke-linecap:butt;stroke-linejoin:miter;stroke:rgb(18.359375%,47.65625%,21.484375%);stroke-opacity:1;stroke-miterlimit:10;" d="M 104.382812 92.085938 C 104.382812 94.570312 102.367188 96.585938 99.882812 96.585938 C 97.398438 96.585938 95.382812 94.570312 95.382812 92.085938 C 95.382812 89.601562 97.398438 87.585938 99.882812 87.585938 C 102.367188 87.585938 104.382812 89.601562 104.382812 92.085938 Z M 104.382812 92.085938 "/>
<path style="fill-rule:nonzero;fill:rgb(57.03125%,34.765625%,63.671875%);fill-opacity:1;stroke-width:1;stroke-linecap:butt;stroke-linejoin:miter;stroke:rgb(47.265625%,28.125%,53.515625%);stroke-opacity:1;stroke-miterlimit:10;" d="M 236.175781 117.8125 C 236.175781 120.296875 234.160156 122.3125 231.675781 122.3125 C 229.191406 122.3125 227.175781 120.296875 227.175781 117.8125 C 227.175781 115.328125 229.191406 113.3125 231.675781 113.3125 C 234.160156 113.3125 236.175781 115.328125 236.175781 117.8125 Z M 236.175781 117.8125 "/>
<path style="fill-rule:nonzero;fill:rgb(29.6875%,39.0625%,68.75%);fill-opacity:1;stroke-width:1;stroke-linecap:butt;stroke-linejoin:miter;stroke:rgb(24.609375%,32.421875%,57.03125%);stroke-opacity:1;stroke-miterlimit:10;" d="M 247.9375 92.085938 C 247.9375 94.570312 245.921875 96.585938 243.4375 96.585938 C 240.953125 96.585938 238.9375 94.570312 238.9375 92.085938 C 238.9375 89.601562 240.953125 87.585938 243.4375 87.585938 C 245.921875 87.585938 247.9375 89.601562 247.9375 92.085938 Z M 247.9375 92.085938 "/>
<g clip-path="url(#clip1)" clip-rule="nonzero">
<g clip-path="url(#clip2)" clip-rule="nonzero">
<path style=" stroke:none;fill-rule:nonzero;fill:rgb(90%,75%,45%);fill-opacity:1;" d="M 151.46875 298.886719 L 151.128906 298.675781 L 151.019531 298.601562 L 150.914062 298.523438 L 150.804688 298.445312 L 150.703125 298.363281 L 150.597656 298.277344 L 150.496094 298.191406 L 150.300781 298.011719 L 150.109375 297.820312 L 149.929688 297.625 L 149.839844 297.519531 L 149.753906 297.417969 L 149.671875 297.3125 L 149.589844 297.203125 L 149.511719 297.09375 L 149.433594 296.980469 L 149.359375 296.867188 L 149.285156 296.75 L 149.214844 296.628906 L 149.144531 296.511719 L 149.078125 296.390625 L 148.953125 296.140625 L 148.894531 296.011719 L 148.839844 295.882812 L 148.785156 295.75 L 148.734375 295.621094 L 148.683594 295.484375 L 148.640625 295.347656 L 148.59375 295.210938 L 148.554688 295.074219 L 148.515625 294.929688 L 148.480469 294.789062 L 148.417969 294.5 L 148.390625 294.351562 L 148.34375 294.054688 L 148.296875 293.597656 L 148.28125 293.285156 L 148.277344 293.125 L 148.277344 292.96875 L 148.28125 292.804688 L 148.289062 292.644531 L 148.296875 292.480469 L 148.308594 292.316406 L 148.324219 292.148438 L 148.34375 291.980469 L 148.367188 291.8125 L 148.394531 291.644531 L 148.421875 291.472656 L 148.453125 291.296875 L 148.492188 291.125 L 148.53125 290.949219 L 148.574219 290.773438 L 148.621094 290.59375 L 148.675781 290.414062 L 148.730469 290.230469 L 148.789062 290.046875 L 148.851562 289.863281 L 148.917969 289.675781 L 148.988281 289.488281 L 149.066406 289.300781 L 149.144531 289.109375 L 149.316406 288.71875 L 149.410156 288.519531 L 149.507812 288.320312 L 149.613281 288.117188 L 149.71875 287.910156 L 149.832031 287.699219 L 149.953125 287.488281 L 150.078125 287.273438 L 150.207031 287.054688 L 150.34375 286.832031 L 150.484375 286.605469 L 150.632812 286.375 L 150.789062 286.136719 L 150.953125 285.894531 L 151.125 285.644531 L 151.300781 285.390625 L 151.488281 285.128906 L 151.683594 284.859375 L 151.890625 284.578125 L 152.109375 284.289062 L 152.335938 283.988281 L 152.574219 283.675781 L 152.828125 283.347656 L 153.09375 283.003906 L 153.378906 282.644531 L 153.679688 282.261719 L 154 281.855469 L 154.34375 281.425781 L 154.710938 280.960938 L 155.105469 280.460938 L 155.53125 279.917969 L 156 279.324219 L 156.507812 278.664062 L 157.070312 277.933594 L 157.695312 277.113281 L 158.398438 276.175781 L 159.199219 275.089844 L 160.125 273.816406 L 161.21875 272.289062 L 162.53125 270.410156 L 164.164062 268.027344 L 166.273438 264.871094 L 169.164062 260.441406 L 173.464844 253.691406 L 180.710938 242.074219 L 192.589844 223.421875 L 197.140625 219.777344 L 196.257812 225.539062 L 186.046875 245.15625 L 179.609375 257.238281 L 175.914062 264.339844 L 173.523438 269.054688 L 171.847656 272.460938 L 170.597656 275.066406 L 169.628906 277.144531 L 168.847656 278.851562 L 168.210938 280.289062 L 167.671875 281.527344 L 167.210938 282.605469 L 166.8125 283.558594 L 166.457031 284.410156 L 166.144531 285.179688 L 165.863281 285.882812 L 165.605469 286.523438 L 165.371094 287.117188 L 165.152344 287.667969 L 164.949219 288.179688 L 164.757812 288.660156 L 164.578125 289.109375 L 164.40625 289.535156 L 164.242188 289.9375 L 164.085938 290.320312 L 163.933594 290.6875 L 163.789062 291.035156 L 163.648438 291.367188 L 163.507812 291.683594 L 163.371094 291.988281 L 163.238281 292.28125 L 163.105469 292.5625 L 162.976562 292.835938 L 162.847656 293.097656 L 162.722656 293.351562 L 162.59375 293.597656 L 162.46875 293.832031 L 162.34375 294.0625 L 162.21875 294.285156 L 162.097656 294.5 L 161.972656 294.707031 L 161.847656 294.910156 L 161.722656 295.109375 L 161.472656 295.484375 L 161.347656 295.664062 L 161.222656 295.839844 L 161.097656 296.007812 L 160.972656 296.171875 L 160.84375 296.332031 L 160.71875 296.488281 L 160.589844 296.640625 L 160.460938 296.789062 L 160.203125 297.070312 L 159.941406 297.332031 L 159.808594 297.460938 L 159.675781 297.582031 L 159.546875 297.703125 L 159.410156 297.816406 L 159.144531 298.035156 L 159.007812 298.140625 L 158.875 298.238281 L 158.738281 298.335938 L 158.601562 298.429688 L 158.464844 298.519531 L 158.324219 298.605469 L 158.050781 298.769531 L 157.910156 298.84375 L 157.773438 298.917969 L 157.492188 299.050781 L 157.210938 299.175781 L 156.929688 299.285156 L 156.507812 299.425781 L 156.367188 299.464844 L 156.085938 299.535156 L 155.945312 299.566406 L 155.664062 299.621094 L 155.382812 299.660156 L 155.242188 299.675781 L 155.101562 299.6875 L 154.964844 299.699219 L 154.824219 299.707031 L 154.6875 299.710938 L 154.546875 299.710938 L 154.273438 299.703125 L 154.136719 299.695312 L 153.863281 299.671875 L 153.597656 299.632812 L 153.460938 299.613281 L 153.332031 299.585938 L 153.199219 299.558594 L 153.066406 299.527344 L 152.9375 299.496094 L 152.808594 299.457031 L 152.683594 299.417969 L 152.554688 299.378906 L 152.179688 299.238281 L 151.9375 299.128906 L 151.820312 299.074219 L 151.699219 299.011719 L 151.582031 298.949219 "/>
</g>
</g>
<g clip-path="url(#clip3)" clip-rule="nonzero">
<g clip-path="url(#clip4)" clip-rule="nonzero">
<path style="fill:none;stroke-width:1;stroke-linecap:butt;stroke-linejoin:miter;stroke:rgb(81%,67.5%,40.5%);stroke-opacity:1;stroke-miterlimit:10;" d="M 151.46875 298.886719 L 151.128906 298.675781 L 151.019531 298.601562 L 150.914062 298.523438 L 150.804688 298.445312 L 150.703125 298.363281 L 150.597656 298.277344 L 150.496094 298.191406 L 150.300781 298.011719 L 150.109375 297.820312 L 149.929688 297.625 L 149.839844 297.519531 L 149.753906 297.417969 L 149.671875 297.3125 L 149.589844 297.203125 L 149.511719 297.09375 L 149.433594 296.980469 L 149.359375 296.867188 L 149.285156 296.75 L 149.214844 296.628906 L 149.144531 296.511719 L 149.078125 296.390625 L 148.953125 296.140625 L 148.894531 296.011719 L 148.839844 295.882812 L 148.785156 295.75 L 148.734375 295.621094 L 148.683594 295.484375 L 148.640625 295.347656 L 148.59375 295.210938 L 148.554688 295.074219 L 148.515625 294.929688 L 148.480469 294.789062 L 148.417969 294.5 L 148.390625 294.351562 L 148.34375 294.054688 L 148.296875 293.597656 L 148.28125 293.285156 L 148.277344 293.125 L 148.277344 292.96875 L 148.28125 292.804688 L 148.289062 292.644531 L 148.296875 292.480469 L 148.308594 292.316406 L 148.324219 292.148438 L 148.34375 291.980469 L 148.367188 291.8125 L 148.394531 291.644531 L 148.421875 291.472656 L 148.453125 291.296875 L 148.492188 291.125 L 148.53125 290.949219 L 148.574219 290.773438 L 148.621094 290.59375 L 148.675781 290.414062 L 148.730469 290.230469 L 148.789062 290.046875 L 148.851562 289.863281 L 148.917969 289.675781 L 148.988281 289.488281 L 149.066406 289.300781 L 149.144531 289.109375 L 149.316406 288.71875 L 149.410156 288.519531 L 149.507812 288.320312 L 149.613281 288.117188 L 149.71875 287.910156 L 149.832031 287.699219 L 149.953125 287.488281 L 150.078125 287.273438 L 150.207031 287.054688 L 150.34375 286.832031 L 150.484375 286.605469 L 150.632812 286.375 L 150.789062 286.136719 L 150.953125 285.894531 L 151.125 285.644531 L 151.300781 285.390625 L 151.488281 285.128906 L 151.683594 284.859375 L 151.890625 284.578125 L 152.109375 284.289062 L 152.335938 283.988281 L 152.574219 283.675781 L 152.828125 283.347656 L 153.09375 283.003906 L 153.378906 282.644531 L 153.679688 282.261719 L 154 281.855469 L 154.34375 281.425781 L 154.710938 280.960938 L 155.105469 280.460938 L 155.53125 279.917969 L 156 279.324219 L 156.507812 278.664062 L 157.070312 277.933594 L 157.695312 277.113281 L 158.398438 276.175781 L 159.199219 275.089844 L 160.125 273.816406 L 161.21875 272.289062 L 162.53125 270.410156 L 164.164062 268.027344 L 166.273438 264.871094 L 169.164062 260.441406 L 173.464844 253.691406 L 180.710938 242.074219 L 192.589844 223.421875 L 197.140625 219.777344 L 196.257812 225.539062 L 186.046875 245.15625 L 179.609375 257.238281 L 175.914062 264.339844 L 173.523438 269.054688 L 171.847656 272.460938 L 170.597656 275.066406 L 169.628906 277.144531 L 168.847656 278.851562 L 168.210938 280.289062 L 167.671875 281.527344 L 167.210938 282.605469 L 166.8125 283.558594 L 166.457031 284.410156 L 166.144531 285.179688 L 165.863281 285.882812 L 165.605469 286.523438 L 165.371094 287.117188 L 165.152344 287.667969 L 164.949219 288.179688 L 164.757812 288.660156 L 164.578125 289.109375 L 164.40625 289.535156 L 164.242188 289.9375 L 164.085938 290.320312 L 163.933594 290.6875 L 163.789062 291.035156 L 163.648438 291.367188 L 163.507812 291.683594 L 163.371094 291.988281 L 163.238281 292.28125 L 163.105469 292.5625 L 162.976562 292.835938 L 162.847656 293.097656 L 162.722656 293.351562 L 162.59375 293.597656 L 162.46875 293.832031 L 162.34375 294.0625 L 162.21875 294.285156 L 162.097656 294.5 L 161.972656 294.707031 L 161.847656 294.910156 L 161.722656 295.109375 L 161.472656 295.484375 L 161.347656 295.664062 L 161.222656 295.839844 L 161.097656 296.007812 L 160.972656 296.171875 L 160.84375 296.332031 L 160.71875 296.488281 L 160.589844 296.640625 L 160.460938 296.789062 L 160.203125 297.070312 L 159.941406 297.332031 L 159.808594 297.460938 L 159.675781 297.582031 L 159.546875 297.703125 L 159.410156 297.816406 L 159.144531 298.035156 L 159.007812 298.140625 L 158.875 298.238281 L 158.738281 298.335938 L 158.601562 298.429688 L 158.464844 298.519531 L 158.324219 298.605469 L 158.050781 298.769531 L 157.910156 298.84375 L 157.773438 298.917969 L 157.492188 299.050781 L 157.210938 299.175781 L 156.929688 299.285156 L 156.507812 299.425781 L 156.367188 299.464844 L 156.085938 299.535156 L 155.945312 299.566406 L 155.664062 299.621094 L 155.382812 299.660156 L 155.242188 299.675781 L 155.101562 299.6875 L 154.964844 299.699219 L 154.824219 299.707031 L 154.6875 299.710938 L 154.546875 299.710938 L 154.273438 299.703125 L 154.136719 299.695312 L 153.863281 299.671875 L 153.597656 299.632812 L 153.460938 299.613281 L 153.332031 299.585938 L 153.199219 299.558594 L 153.066406 299.527344 L 152.9375 299.496094 L 152.808594 299.457031 L 152.683594 299.417969 L 152.554688 299.378906 L 152.179688 299.238281 L 151.9375 299.128906 L 151.820312 299.074219 L 151.699219 299.011719 L 151.582031 298.949219 "/>
</g>
</g>
<g clip-path="url(#clip5)" clip-rule="nonzero">
<g clip-path="url(#clip6)" clip-rule="nonzero">
<path style=" stroke:none;fill-rule:nonzero;fill:rgb(94.117647%,100%,100%);fill-opacity:0.9;" d="M 32.878906 229.5 L 48.839844 229.5 L 48.839844 177.539062 L 58.441406 177.539062 L 58.441406 163.019531 L 48.839844 163.019531 L 48.839844 140.820312 L 32.878906 140.820312 L 32.878906 163.019531 L 25.078125 163.019531 L 25.078125 177.539062 L 32.878906 177.539062 Z M 60 229.5 Z "/>
</g>
</g>
<g clip-path="url(#clip7)" clip-rule="nonzero">
<g clip-path="url(#clip8)" clip-rule="nonzero">
<path style=" stroke:none;fill-rule:nonzero;fill:rgb(94.117647%,100%,100%);fill-opacity:0.9;" d="M 64.859375 229.5 L 76.828125 229.5 L 76.828125 179.640625 L 64.859375 179.640625 Z M 64.859375 174.238281 L 76.828125 174.238281 L 76.828125 162.988281 L 64.859375 162.988281 Z M 81.601562 229.5 Z "/>
</g>
</g>
<g clip-path="url(#clip9)" clip-rule="nonzero">
<g clip-path="url(#clip10)" clip-rule="nonzero">
<path style=" stroke:none;fill-rule:nonzero;fill:rgb(94.117647%,100%,100%);fill-opacity:0.9;" d="M 161.292969 138.429688 L 144 138.429688 L 144 168.851562 L 141.945312 166.855469 L 139.625 165.085938 L 137.054688 163.550781 L 134.28125 162.265625 L 131.316406 161.238281 L 128.203125 160.492188 L 124.964844 160.03125 L 121.640625 159.878906 L 117.890625 160.070312 L 114.261719 160.644531 L 110.765625 161.574219 L 107.433594 162.851562 L 104.265625 164.449219 L 101.289062 166.359375 L 98.515625 168.554688 L 95.964844 171.023438 L 93.644531 173.738281 L 91.585938 176.695312 L 89.792969 179.863281 L 88.292969 183.238281 L 87.089844 186.785156 L 86.21875 190.503906 L 85.679688 194.367188 L 85.5 198.359375 L 85.675781 202.3125 L 86.207031 206.136719 L 87.066406 209.804688 L 88.253906 213.3125 L 89.738281 216.628906 L 91.515625 219.75 L 93.5625 222.648438 L 95.867188 225.316406 L 98.40625 227.722656 L 101.175781 229.871094 L 104.148438 231.730469 L 107.324219 233.292969 L 110.671875 234.53125 L 114.183594 235.441406 L 117.84375 236 L 121.640625 236.191406 L 125.171875 236.035156 L 128.480469 235.558594 L 131.59375 234.746094 L 134.554688 233.589844 L 137.382812 232.058594 L 140.117188 230.152344 L 142.785156 227.851562 L 145.429688 225.140625 L 145.429688 234.5 L 161.292969 234.5 Z M 123.980469 175.738281 L 126.207031 175.84375 L 128.363281 176.171875 L 130.429688 176.699219 L 132.40625 177.433594 L 134.273438 178.347656 L 136.03125 179.445312 L 137.664062 180.710938 L 139.171875 182.136719 L 140.527344 183.707031 L 141.738281 185.417969 L 142.785156 187.257812 L 143.667969 189.226562 L 144.363281 191.296875 L 144.878906 193.476562 L 145.191406 195.746094 L 145.300781 198.101562 L 145.191406 200.402344 L 144.878906 202.632812 L 144.363281 204.777344 L 143.671875 206.835938 L 142.796875 208.777344 L 141.757812 210.609375 L 140.558594 212.316406 L 139.21875 213.890625 L 137.730469 215.3125 L 136.125 216.582031 L 134.398438 217.683594 L 132.570312 218.609375 L 130.636719 219.34375 L 128.625 219.882812 L 126.527344 220.210938 L 124.371094 220.328125 L 122.132812 220.210938 L 119.972656 219.875 L 117.894531 219.324219 L 115.914062 218.578125 L 114.03125 217.636719 L 112.261719 216.519531 L 110.617188 215.226562 L 109.109375 213.777344 L 107.734375 212.171875 L 106.515625 210.425781 L 105.453125 208.550781 L 104.570312 206.558594 L 103.855469 204.449219 L 103.34375 202.246094 L 103.027344 199.949219 L 102.921875 197.578125 L 103.023438 195.292969 L 103.335938 193.085938 L 103.84375 190.964844 L 104.542969 188.949219 L 105.414062 187.03125 L 106.457031 185.234375 L 107.65625 183.558594 L 109.011719 182.023438 L 110.496094 180.625 L 112.113281 179.386719 L 113.847656 178.308594 L 115.695312 177.410156 L 117.640625 176.6875 L 119.675781 176.164062 L 121.789062 175.84375 Z M 167.398438 234.5 Z "/>
</g>
</g>
<g clip-path="url(#clip11)" clip-rule="nonzero">
<g clip-path="url(#clip12)" clip-rule="nonzero">
<path style=" stroke:none;fill-rule:nonzero;fill:rgb(94.117647%,100%,100%);fill-opacity:0.9;" d="M 172.796875 219.5 L 186.097656 219.5 L 186.097656 164.101562 L 172.796875 164.101562 Z M 172.796875 158.101562 L 186.097656 158.101562 L 186.097656 145.601562 L 172.796875 145.601562 Z M 191.398438 219.5 Z "/>
</g>
</g>
<g clip-path="url(#clip13)" clip-rule="nonzero">
<g clip-path="url(#clip14)" clip-rule="nonzero">
<path style=" stroke:none;fill-rule:nonzero;fill:rgb(94.117647%,100%,100%);fill-opacity:0.9;" d="M 239.636719 227.058594 L 239.953125 224.976562 L 240.039062 222.898438 L 239.921875 220.371094 L 239.59375 217.945312 L 239.054688 215.617188 L 238.316406 213.410156 L 237.382812 211.316406 L 236.273438 209.363281 L 234.988281 207.546875 L 233.546875 205.886719 L 231.9375 204.378906 L 230.191406 203.046875 L 228.304688 201.886719 L 226.296875 200.925781 L 224.164062 200.15625 L 221.925781 199.597656 L 219.585938 199.253906 L 217.160156 199.140625 L 214.742188 199.257812 L 212.40625 199.605469 L 210.152344 200.171875 L 208.003906 200.953125 L 205.953125 201.925781 L 204.03125 203.085938 L 202.234375 204.421875 L 200.585938 205.929688 L 199.078125 207.578125 L 197.742188 209.375 L 196.582031 211.296875 L 195.609375 213.347656 L 194.828125 215.496094 L 194.261719 217.746094 L 193.914062 220.082031 L 193.796875 222.5 L 193.914062 224.890625 L 194.269531 227.207031 L 194.84375 229.433594 L 195.640625 231.5625 L 196.632812 233.578125 L 197.820312 235.480469 L 199.183594 237.25 L 200.722656 238.878906 L 202.414062 240.351562 L 204.257812 241.664062 L 206.234375 242.796875 L 208.339844 243.757812 L 210.554688 244.515625 L 212.878906 245.078125 L 215.292969 245.417969 L 217.796875 245.539062 L 220.449219 245.410156 L 222.960938 245.039062 L 225.335938 244.414062 L 227.585938 243.546875 L 229.703125 242.421875 L 231.710938 241.046875 L 233.605469 239.417969 L 235.398438 237.539062 L 236.550781 236.011719 L 237.515625 234.519531 L 238.296875 232.992188 L 238.917969 231.378906 L 227.320312 231.378906 L 225.261719 233.414062 L 224.1875 234.171875 L 223.066406 234.777344 L 221.855469 235.226562 L 220.550781 235.539062 L 217.558594 235.78125 L 215.265625 235.621094 L 213.15625 235.167969 L 211.242188 234.429688 L 209.546875 233.429688 L 208.082031 232.167969 L 206.878906 230.679688 L 205.945312 228.96875 L 205.320312 227.058594 Z M 205 217.699219 L 205.746094 215.660156 L 206.742188 213.890625 L 207.964844 212.378906 L 209.417969 211.136719 L 211.082031 210.15625 L 212.960938 209.460938 L 215.039062 209.039062 L 217.320312 208.898438 L 219.667969 209.039062 L 221.804688 209.46875 L 223.710938 210.175781 L 225.386719 211.164062 L 226.8125 212.410156 L 227.992188 213.921875 L 228.90625 215.683594 L 229.558594 217.699219 Z M 242.601562 244.5 Z "/>
</g>
</g>
<g clip-path="url(#clip15)" clip-rule="nonzero">
<g clip-path="url(#clip16)" clip-rule="nonzero">
<path style=" stroke:none;fill-rule:nonzero;fill:rgb(94.117647%,100%,100%);fill-opacity:0.9;" d="M 248.542969 229.5 L 263.171875 229.5 L 263.171875 195.621094 L 263.273438 192.421875 L 263.835938 189.605469 L 264.839844 187.179688 L 266.289062 185.15625 L 268.15625 183.53125 L 270.449219 182.328125 L 273.152344 181.550781 L 276.261719 181.210938 L 276.261719 167.128906 L 275.160156 167.128906 L 272.945312 167.214844 L 270.992188 167.488281 L 269.238281 167.976562 L 267.652344 168.707031 L 266.167969 169.695312 L 264.761719 170.976562 L 263.371094 172.570312 L 261.960938 174.5 L 261.960938 168.558594 L 248.542969 168.558594 Z M 277.800781 229.5 Z "/>
</g>
</g>
<g clip-path="url(#clip17)" clip-rule="nonzero">
<g clip-path="url(#clip18)" clip-rule="nonzero">
<path style=" stroke:none;fill-rule:nonzero;fill:rgb(90%,49.5%,9%);fill-opacity:1;" d="M 150.953125 298.542969 L 150.847656 298.464844 L 150.542969 298.207031 L 150.445312 298.117188 L 150.164062 297.835938 L 150.074219 297.734375 L 149.988281 297.636719 L 149.902344 297.535156 L 149.816406 297.429688 L 149.734375 297.324219 L 149.578125 297.105469 L 149.503906 296.992188 L 149.433594 296.878906 L 149.292969 296.644531 L 149.226562 296.527344 L 149.164062 296.40625 L 148.988281 296.03125 L 148.886719 295.773438 L 148.839844 295.644531 L 148.792969 295.511719 L 148.75 295.378906 L 148.671875 295.105469 L 148.636719 294.96875 L 148.574219 294.6875 L 148.527344 294.40625 L 148.503906 294.261719 L 148.488281 294.113281 L 148.472656 293.96875 L 148.449219 293.671875 L 148.445312 293.519531 L 148.441406 293.371094 L 148.441406 293.21875 L 148.445312 293.0625 L 148.453125 292.910156 L 148.460938 292.753906 L 148.472656 292.597656 L 148.488281 292.441406 L 148.507812 292.28125 L 148.554688 291.960938 L 148.585938 291.800781 L 148.617188 291.636719 L 148.652344 291.476562 L 148.691406 291.3125 L 148.734375 291.148438 L 148.78125 290.980469 L 148.832031 290.8125 L 148.886719 290.648438 L 148.945312 290.476562 L 149.003906 290.308594 L 149.070312 290.136719 L 149.140625 289.96875 L 149.210938 289.792969 L 149.289062 289.621094 L 149.453125 289.269531 L 149.542969 289.09375 L 149.636719 288.917969 L 149.734375 288.738281 L 149.839844 288.554688 L 149.945312 288.375 L 150.058594 288.191406 L 150.175781 288.003906 L 150.296875 287.816406 L 150.421875 287.628906 L 150.554688 287.4375 L 150.691406 287.242188 L 150.835938 287.046875 L 150.984375 286.847656 L 151.140625 286.648438 L 151.304688 286.441406 L 151.472656 286.234375 L 151.648438 286.023438 L 151.832031 285.808594 L 152.023438 285.585938 L 152.222656 285.359375 L 152.433594 285.128906 L 152.648438 284.890625 L 152.878906 284.648438 L 153.117188 284.394531 L 153.367188 284.132812 L 153.628906 283.863281 L 153.90625 283.582031 L 154.195312 283.289062 L 154.828125 282.65625 L 155.171875 282.316406 L 155.539062 281.953125 L 155.933594 281.5625 L 156.355469 281.148438 L 156.808594 280.699219 L 157.296875 280.210938 L 157.832031 279.679688 L 158.417969 279.089844 L 159.066406 278.433594 L 159.789062 277.691406 L 160.601562 276.847656 L 161.527344 275.867188 L 162.601562 274.71875 L 163.871094 273.332031 L 165.402344 271.628906 L 167.3125 269.460938 L 169.792969 266.585938 L 173.199219 262.546875 L 178.292969 256.367188 L 186.902344 245.722656 L 200.964844 228.65625 L 205.925781 225.59375 L 204.347656 231.203125 L 191.820312 249.429688 L 183.960938 260.636719 L 179.425781 267.234375 L 176.480469 271.625 L 174.398438 274.800781 L 172.839844 277.234375 L 171.625 279.179688 L 170.644531 280.777344 L 169.835938 282.128906 L 169.148438 283.289062 L 168.5625 284.304688 L 168.046875 285.203125 L 167.59375 286.003906 L 167.191406 286.730469 L 166.824219 287.390625 L 166.492188 287.996094 L 166.183594 288.558594 L 165.902344 289.074219 L 165.636719 289.558594 L 165.390625 290.011719 L 165.15625 290.441406 L 164.933594 290.839844 L 164.722656 291.222656 L 164.519531 291.582031 L 164.328125 291.925781 L 164.136719 292.253906 L 163.957031 292.566406 L 163.78125 292.863281 L 163.609375 293.148438 L 163.4375 293.425781 L 163.273438 293.6875 L 163.113281 293.941406 L 162.953125 294.1875 L 162.796875 294.421875 L 162.640625 294.652344 L 162.488281 294.871094 L 162.335938 295.082031 L 162.183594 295.289062 L 162.035156 295.488281 L 161.886719 295.679688 L 161.738281 295.863281 L 161.589844 296.042969 L 161.445312 296.21875 L 161.296875 296.386719 L 161.152344 296.550781 L 161.007812 296.710938 L 160.859375 296.863281 L 160.714844 297.011719 L 160.570312 297.15625 L 160.425781 297.292969 L 160.277344 297.429688 L 160.132812 297.558594 L 159.988281 297.683594 L 159.84375 297.804688 L 159.695312 297.921875 L 159.550781 298.035156 L 159.40625 298.144531 L 159.257812 298.25 L 159.113281 298.351562 L 158.96875 298.449219 L 158.820312 298.546875 L 158.675781 298.636719 L 158.527344 298.722656 L 158.382812 298.804688 L 158.085938 298.960938 L 157.941406 299.03125 L 157.792969 299.101562 L 157.648438 299.167969 L 157.5 299.230469 L 157.351562 299.289062 L 157.207031 299.34375 L 156.910156 299.445312 L 156.765625 299.488281 L 156.617188 299.53125 L 156.472656 299.570312 L 156.328125 299.605469 L 156.179688 299.636719 L 156.035156 299.667969 L 155.746094 299.714844 L 155.457031 299.753906 L 155.167969 299.777344 L 155.027344 299.785156 L 154.886719 299.789062 L 154.601562 299.789062 L 154.460938 299.785156 L 154.324219 299.777344 L 154.183594 299.765625 L 154.046875 299.753906 L 153.910156 299.738281 L 153.636719 299.699219 L 153.5 299.671875 L 153.234375 299.617188 L 153.105469 299.582031 L 152.972656 299.546875 L 152.714844 299.46875 L 152.589844 299.421875 L 152.460938 299.378906 L 152.335938 299.328125 L 152.214844 299.277344 L 152.09375 299.222656 L 151.851562 299.105469 L 151.617188 298.980469 L 151.503906 298.914062 L 151.277344 298.773438 L 151.167969 298.699219 L 151.058594 298.621094 "/>
</g>
</g>
<g clip-path="url(#clip19)" clip-rule="nonzero">
<g clip-path="url(#clip20)" clip-rule="nonzero">
<path style="fill:none;stroke-width:1;stroke-linecap:butt;stroke-linejoin:miter;stroke:rgb(81%,44.55%,8.1%);stroke-opacity:1;stroke-miterlimit:10;" d="M 150.953125 298.542969 L 150.847656 298.464844 L 150.542969 298.207031 L 150.445312 298.117188 L 150.164062 297.835938 L 150.074219 297.734375 L 149.988281 297.636719 L 149.902344 297.535156 L 149.816406 297.429688 L 149.734375 297.324219 L 149.578125 297.105469 L 149.503906 296.992188 L 149.433594 296.878906 L 149.292969 296.644531 L 149.226562 296.527344 L 149.164062 296.40625 L 148.988281 296.03125 L 148.886719 295.773438 L 148.839844 295.644531 L 148.792969 295.511719 L 148.75 295.378906 L 148.671875 295.105469 L 148.636719 294.96875 L 148.574219 294.6875 L 148.527344 294.40625 L 148.503906 294.261719 L 148.488281 294.113281 L 148.472656 293.96875 L 148.449219 293.671875 L 148.445312 293.519531 L 148.441406 293.371094 L 148.441406 293.21875 L 148.445312 293.0625 L 148.453125 292.910156 L 148.460938 292.753906 L 148.472656 292.597656 L 148.488281 292.441406 L 148.507812 292.28125 L 148.554688 291.960938 L 148.585938 291.800781 L 148.617188 291.636719 L 148.652344 291.476562 L 148.691406 291.3125 L 148.734375 291.148438 L 148.78125 290.980469 L 148.832031 290.8125 L 148.886719 290.648438 L 148.945312 290.476562 L 149.003906 290.308594 L 149.070312 290.136719 L 149.140625 289.96875 L 149.210938 289.792969 L 149.289062 289.621094 L 149.453125 289.269531 L 149.542969 289.09375 L 149.636719 288.917969 L 149.734375 288.738281 L 149.839844 288.554688 L 149.945312 288.375 L 150.058594 288.191406 L 150.175781 288.003906 L 150.296875 287.816406 L 150.421875 287.628906 L 150.554688 287.4375 L 150.691406 287.242188 L 150.835938 287.046875 L 150.984375 286.847656 L 151.140625 286.648438 L 151.304688 286.441406 L 151.472656 286.234375 L 151.648438 286.023438 L 151.832031 285.808594 L 152.023438 285.585938 L 152.222656 285.359375 L 152.433594 285.128906 L 152.648438 284.890625 L 152.878906 284.648438 L 153.117188 284.394531 L 153.367188 284.132812 L 153.628906 283.863281 L 153.90625 283.582031 L 154.195312 283.289062 L 154.828125 282.65625 L 155.171875 282.316406 L 155.539062 281.953125 L 155.933594 281.5625 L 156.355469 281.148438 L 156.808594 280.699219 L 157.296875 280.210938 L 157.832031 279.679688 L 158.417969 279.089844 L 159.066406 278.433594 L 159.789062 277.691406 L 160.601562 276.847656 L 161.527344 275.867188 L 162.601562 274.71875 L 163.871094 273.332031 L 165.402344 271.628906 L 167.3125 269.460938 L 169.792969 266.585938 L 173.199219 262.546875 L 178.292969 256.367188 L 186.902344 245.722656 L 200.964844 228.65625 L 205.925781 225.59375 L 204.347656 231.203125 L 191.820312 249.429688 L 183.960938 260.636719 L 179.425781 267.234375 L 176.480469 271.625 L 174.398438 274.800781 L 172.839844 277.234375 L 171.625 279.179688 L 170.644531 280.777344 L 169.835938 282.128906 L 169.148438 283.289062 L 168.5625 284.304688 L 168.046875 285.203125 L 167.59375 286.003906 L 167.191406 286.730469 L 166.824219 287.390625 L 166.492188 287.996094 L 166.183594 288.558594 L 165.902344 289.074219 L 165.636719 289.558594 L 165.390625 290.011719 L 165.15625 290.441406 L 164.933594 290.839844 L 164.722656 291.222656 L 164.519531 291.582031 L 164.328125 291.925781 L 164.136719 292.253906 L 163.957031 292.566406 L 163.78125 292.863281 L 163.609375 293.148438 L 163.4375 293.425781 L 163.273438 293.6875 L 163.113281 293.941406 L 162.953125 294.1875 L 162.796875 294.421875 L 162.640625 294.652344 L 162.488281 294.871094 L 162.335938 295.082031 L 162.183594 295.289062 L 162.035156 295.488281 L 161.886719 295.679688 L 161.738281 295.863281 L 161.589844 296.042969 L 161.445312 296.21875 L 161.296875 296.386719 L 161.152344 296.550781 L 161.007812 296.710938 L 160.859375 296.863281 L 160.714844 297.011719 L 160.570312 297.15625 L 160.425781 297.292969 L 160.277344 297.429688 L 160.132812 297.558594 L 159.988281 297.683594 L 159.84375 297.804688 L 159.695312 297.921875 L 159.550781 298.035156 L 159.40625 298.144531 L 159.257812 298.25 L 159.113281 298.351562 L 158.96875 298.449219 L 158.820312 298.546875 L 158.675781 298.636719 L 158.527344 298.722656 L 158.382812 298.804688 L 158.085938 298.960938 L 157.941406 299.03125 L 157.792969 299.101562 L 157.648438 299.167969 L 157.5 299.230469 L 157.351562 299.289062 L 157.207031 299.34375 L 156.910156 299.445312 L 156.765625 299.488281 L 156.617188 299.53125 L 156.472656 299.570312 L 156.328125 299.605469 L 156.179688 299.636719 L 156.035156 299.667969 L 155.746094 299.714844 L 155.457031 299.753906 L 155.167969 299.777344 L 155.027344 299.785156 L 154.886719 299.789062 L 154.601562 299.789062 L 154.460938 299.785156 L 154.324219 299.777344 L 154.183594 299.765625 L 154.046875 299.753906 L 153.910156 299.738281 L 153.636719 299.699219 L 153.5 299.671875 L 153.234375 299.617188 L 153.105469 299.582031 L 152.972656 299.546875 L 152.714844 299.46875 L 152.589844 299.421875 L 152.460938 299.378906 L 152.335938 299.328125 L 152.214844 299.277344 L 152.09375 299.222656 L 151.851562 299.105469 L 151.617188 298.980469 L 151.503906 298.914062 L 151.277344 298.773438 L 151.167969 298.699219 L 151.058594 298.621094 "/>
</g>
</g>
<g clip-path="url(#clip21)" clip-rule="nonzero">
<g clip-path="url(#clip22)" clip-rule="nonzero">
<path style=" stroke:none;fill-rule:nonzero;fill:rgb(100%,84.313725%,0%);fill-opacity:1;" d="M 88 144.5 C 88 147.261719 85.761719 149.5 83 149.5 C 80.238281 149.5 78 147.261719 78 144.5 C 78 141.738281 80.238281 139.5 83 139.5 C 85.761719 139.5 88 141.738281 88 144.5 Z M 88 144.5 "/>
</g>
</g>
<g clip-path="url(#clip23)" clip-rule="nonzero">
<g clip-path="url(#clip24)" clip-rule="nonzero">
<path style="fill:none;stroke-width:2;stroke-linecap:butt;stroke-linejoin:miter;stroke:rgb(100%,84.313725%,0%);stroke-opacity:1;stroke-miterlimit:10;" d="M 83 144.5 L 83 264.5 "/>
</g>
</g>
<g clip-path="url(#clip25)" clip-rule="nonzero">
<g clip-path="url(#clip26)" clip-rule="nonzero">
<path style=" stroke:none;fill-rule:nonzero;fill:rgb(100%,84.313725%,0%);fill-opacity:1;" d="M 88 264.5 C 88 267.261719 85.761719 269.5 83 269.5 C 80.238281 269.5 78 267.261719 78 264.5 C 78 261.738281 80.238281 259.5 83 259.5 C 85.761719 259.5 88 261.738281 88 264.5 Z M 88 264.5 "/>
</g>
</g>
</g>
</svg>
